<?xml version="1.0" standalone="no"?>
<!DOCTYPE svg PUBLIC "-//W3C//DTD SVG 20010904//EN"
 "http://www.w3.org/TR/2001/REC-SVG-20010904/DTD/svg10.dtd">
<svg version="1.0" xmlns="http://www.w3.org/2000/svg"
 width="512.000000pt" height="442.000000pt" viewBox="0 0 512.000000 442.000000"
 preserveAspectRatio="xMidYMid meet">

<g transform="translate(0.000000,442.000000) scale(0.100000,-0.100000)"
fill="#000000" stroke="none">
<path d="M2105 4023 c-190 -24 -346 -73 -530 -164 -457 -225 -773 -621 -891
-1116 -13 -57 -24 -119 -24 -138 0 -44 29 -75 70 -75 40 0 66 29 75 81 51 316
225 639 462 860 193 180 460 322 715 378 157 35 431 42 602 16 55 -8 103 -15
108 -15 4 0 8 31 8 69 l0 69 -32 11 c-62 20 -203 31 -368 30 -91 -1 -178 -4
-195 -6z"/>
<path d="M3017 3653 c-4 -3 -7 -136 -7 -295 l0 -288 29 0 c25 0 29 4 35 38 3
20 6 137 6 260 l0 222 728 1 c400 1 738 4 752 8 16 4 25 14 25 26 0 12 -9 22
-25 26 -32 9 -1534 11 -1543 2z"/>
<path d="M3318 3363 l60 -77 -64 -83 c-35 -46 -64 -85 -64 -88 0 -3 15 -5 34
-5 31 0 39 7 93 80 32 44 61 80 66 80 4 0 7 -36 7 -80 0 -79 0 -80 25 -80 25
0 25 1 25 81 0 49 4 79 10 77 5 -1 34 -37 63 -78 48 -68 57 -75 90 -78 20 -2
37 0 37 3 0 3 -27 42 -60 85 -33 43 -60 82 -60 85 0 5 27 43 103 143 7 9 0 12
-29 12 -37 0 -41 -3 -88 -75 -27 -41 -53 -75 -58 -75 -6 0 -8 32 -6 75 l3 75
-27 0 -28 0 0 -75 c0 -41 -3 -75 -7 -75 -9 1 -91 113 -100 136 -3 9 -20 14
-45 14 l-39 0 59 -77z"/>
<path d="M3822 3367 c-16 -102 -49 -187 -79 -198 -21 -8 -24 -14 -21 -56 3
-41 6 -48 25 -51 17 -3 24 3 29 23 l7 27 131 -3 c116 -3 131 -1 134 13 2 10
-6 25 -17 35 -19 16 -21 28 -21 150 l0 133 -88 0 -88 0 -12 -73z m126 -89 c1
-60 -1 -108 -5 -109 -62 -4 -118 -1 -118 6 0 6 10 39 22 75 12 36 24 82 28
103 6 36 8 38 38 35 l32 -3 3 -107z"/>
<path d="M4092 3418 c2 -19 10 -24 44 -26 38 -3 42 -6 48 -34 3 -17 6 -77 6
-134 0 -57 4 -104 9 -104 36 0 39 11 40 133 1 67 5 125 9 129 4 4 25 8 47 10
33 2 41 7 43 26 3 22 2 22 -123 22 -125 0 -126 0 -123 -22z"/>
<path d="M2249 3411 c-93 -7 -109 -20 -153 -111 l-31 -65 0 -215 0 -215 112
-3 112 -3 3 48 c3 47 4 48 37 51 19 2 44 1 57 -2 21 -6 24 -12 24 -52 l0 -45
113 3 112 3 3 160 c3 184 -8 277 -43 344 -35 71 -76 101 -134 101 -27 0 -68 2
-92 4 -24 2 -78 1 -120 -3z m116 -37 c0 -10 -8 -20 -17 -22 -18 -3 -26 27 -11
42 12 11 28 0 28 -20z m-35 -129 l0 -75 -100 0 c-55 0 -103 1 -107 3 -9 2 -8
39 2 105 l6 42 100 0 99 0 0 -75z m241 40 c4 -16 9 -49 12 -72 l5 -43 -109 0
-109 0 0 75 0 76 97 -3 97 -3 7 -30z m-350 -288 c17 -31 -4 -67 -39 -67 -34 0
-52 16 -52 46 0 48 69 64 91 21z m341 -2 c9 -21 8 -28 -7 -45 -40 -44 -104 -3
-76 49 17 31 68 29 83 -4z"/>
<path d="M4607 3149 c7 -7 15 -10 18 -7 3 3 -2 9 -12 12 -14 6 -15 5 -6 -5z"/>
<path d="M3293 3000 c-59 -35 -63 -56 -63 -293 0 -206 1 -215 23 -248 12 -19
39 -42 60 -52 l37 -17 0 -150 c0 -83 -3 -150 -7 -151 -5 0 -81 -1 -170 -2 -90
-1 -163 -3 -163 -5 0 -3 23 -33 51 -68 l51 -64 172 0 c95 0 200 -3 232 -6 l59
-6 24 53 c27 58 260 410 348 524 29 39 82 109 116 157 34 48 68 89 75 92 9 4
12 -28 12 -142 0 -170 11 -201 80 -230 l40 -17 0 -152 c0 -116 -3 -153 -12
-154 -7 0 -63 0 -123 1 -61 1 -118 -2 -128 -6 -27 -10 -23 -75 6 -102 23 -22
30 -22 237 -21 l214 2 -30 24 c-16 13 -50 38 -75 54 l-47 31 -4 85 c-6 113 2
243 15 243 16 0 77 50 77 62 0 6 -12 1 -26 -13 -21 -19 -36 -24 -80 -24 -47 0
-57 4 -86 33 l-33 32 -3 199 c-4 224 3 256 60 291 53 32 94 27 139 -19 l39
-39 1 -213 c0 -129 4 -206 9 -194 5 11 9 108 9 215 1 176 -1 198 -19 227 -32
53 -70 69 -153 65 -17 -1 -41 -16 -66 -42 -42 -43 -53 -43 -44 2 7 35 -11 52
-39 37 -19 -10 -27 -22 -112 -150 -27 -41 -52 -76 -56 -79 -4 -3 -60 -85 -124
-183 -63 -98 -125 -187 -136 -199 -11 -12 -20 -26 -20 -31 0 -5 -20 -36 -45
-69 -24 -33 -71 -102 -102 -153 -32 -52 -61 -94 -64 -95 -4 0 -18 9 -33 21
l-26 20 0 155 0 154 37 17 c20 10 46 31 57 46 20 27 21 41 21 255 0 206 -2
230 -19 255 -39 58 -131 75 -193 37z m128 -15 c16 -9 39 -30 49 -48 18 -29 20
-51 20 -239 l0 -207 -34 -35 c-29 -31 -40 -36 -80 -36 -39 0 -52 6 -84 34
l-37 34 -3 200 c-4 225 3 257 60 292 40 24 69 25 109 5z"/>
<path d="M3338 2934 c-61 -32 -43 -116 26 -122 46 -4 63 9 72 56 6 31 3 39
-20 59 -31 27 -41 28 -78 7z"/>
<path d="M3323 2760 c-12 -10 -24 -29 -28 -40 -10 -31 13 -77 44 -90 81 -33
148 64 86 125 -29 30 -73 32 -102 5z m93 -31 c17 -19 17 -23 3 -47 -29 -52
-99 -36 -99 23 0 46 62 62 96 24z"/>
<path d="M3325 2575 c-30 -29 -32 -64 -5 -93 20 -22 64 -29 86 -14 15 10 34
47 34 67 0 23 -45 65 -70 65 -11 0 -32 -11 -45 -25z"/>
<path d="M4265 2918 c-72 -39 -52 -128 29 -128 38 0 53 14 62 58 5 25 1 36
-19 56 -28 28 -42 31 -72 14z"/>
<path d="M2320 2835 c0 -32 2 -35 30 -35 28 0 30 3 30 35 0 32 -2 35 -30 35
-28 0 -30 -3 -30 -35z"/>
<path d="M2076 2757 c10 -28 50 -39 151 -45 89 -4 103 -3 103 11 0 8 3 22 6
31 5 14 -10 16 -130 16 -105 0 -134 -3 -130 -13z"/>
<path d="M2362 2743 c3 -26 6 -28 58 -31 90 -5 157 7 188 33 l27 24 -138 1
-138 0 3 -27z"/>
<path d="M4240 2740 c-29 -29 -35 -66 -16 -96 46 -69 145 -40 146 43 0 61 -86
97 -130 53z m90 -20 c11 -11 20 -28 20 -37 0 -46 -79 -73 -100 -34 -16 31 -12
59 12 75 30 21 44 20 68 -4z"/>
<path d="M2100 2630 c0 -5 4 -10 9 -10 6 0 13 5 16 10 3 6 -1 10 -9 10 -9 0
-16 -4 -16 -10z"/>
<path d="M2180 2634 c0 -9 -41 -60 -265 -334 -51 -63 -154 -190 -227 -281
-269 -337 -540 -659 -549 -654 -17 11 -9 26 61 113 l69 87 -131 3 c-81 2 -137
7 -146 14 -42 35 -136 272 -172 433 -28 126 -40 145 -85 145 -41 0 -75 -29
-75 -64 0 -102 77 -352 156 -507 113 -221 234 -372 423 -531 176 -146 323
-229 528 -297 263 -87 318 -95 553 -88 293 9 522 63 765 180 283 137 457 299
654 610 67 105 82 136 87 181 6 50 5 53 -17 59 -13 4 -25 2 -27 -3 -2 -6 -16
-10 -31 -10 -23 0 -32 -9 -56 -52 -15 -29 -30 -55 -32 -58 -3 -3 -58 -7 -124
-10 l-119 -5 60 -77 c37 -49 57 -84 54 -93 -4 -9 -10 -15 -14 -13 -13 6 -169
196 -574 703 -225 281 -415 517 -423 525 -17 17 33 -66 155 -256 311 -485 420
-657 515 -814 38 -63 96 -156 128 -206 33 -50 59 -96 59 -102 0 -15 -112 -107
-205 -167 -149 -97 -290 -160 -460 -205 -262 -69 -529 -68 -793 1 -129 33
-203 63 -312 121 -83 45 -224 140 -284 192 l-38 33 16 32 c10 18 50 80 90 139
40 59 121 188 180 287 97 163 198 322 395 625 182 280 222 343 216 348 -3 3
-5 1 -5 -4z"/>
<path d="M2240 2630 c0 -6 42 -10 105 -10 63 0 105 4 105 10 0 6 -42 10 -105
10 -63 0 -105 -4 -105 -10z"/>
<path d="M2565 2630 c3 -5 10 -10 16 -10 5 0 9 5 9 10 0 6 -7 10 -16 10 -8 0
-12 -4 -9 -10z"/>
<path d="M4245 2555 c-14 -13 -25 -33 -25 -45 0 -28 44 -70 73 -70 55 0 80 92
35 124 -32 22 -55 20 -83 -9z m83 -13 c3 -9 -2 -13 -14 -10 -9 1 -19 9 -22 16
-3 9 2 13 14 10 9 -1 19 -9 22 -16z m-34 -33 c10 16 26 4 26 -20 0 -17 -6 -20
-31 -17 -40 4 -59 29 -39 53 12 15 15 15 25 -6 8 -14 15 -18 19 -10z"/>
<path d="M1845 2390 l-29 -30 45 0 c35 0 51 6 67 23 30 32 28 37 -16 37 -29 0
-45 -7 -67 -30z"/>
<path d="M2096 2398 c-9 -12 -16 -26 -16 -31 0 -4 119 -7 265 -6 274 1 281 2
251 42 -12 15 -36 17 -249 17 -232 0 -236 0 -251 -22z"/>
<path d="M2760 2390 c18 -26 28 -30 67 -30 l46 0 -19 23 c-29 33 -36 37 -77
37 l-38 0 21 -30z"/>
<path d="M1481 2018 l-73 -73 63 -3 c35 -2 73 0 84 3 18 5 125 125 125 139 0
3 -28 6 -63 6 l-63 0 -73 -72z"/>
<path d="M1908 2083 c-16 -4 -88 -110 -88 -129 0 -8 945 -8 1032 -1 l26 2 -36
62 c-28 47 -44 63 -66 67 -33 7 -842 6 -868 -1z"/>
<path d="M2008 1572 l-446 -2 -50 -78 c-27 -42 -61 -97 -75 -122 l-26 -45 936
-3 c769 -3 934 -1 928 10 -4 7 -40 64 -79 126 l-71 112 -200 1 c-110 1 -261 2
-335 3 -74 1 -336 0 -582 -2z"/>
</g>
</svg>
